# xmcd
#
# Track frame offsets: 
#        150
#        10175
#        20550
#        33500
#        43800
#        55800
#        65475
#        74800
#        84750
#        97738
#        106688
#        118825
#        132000
#        141838
#        154575
#        163725
#        177350
#        190438
#        202850
#        216025
#        228588
#        241238
#        253638
#        267975
#        282488
#        299000
#
# Disc length: 4142 seconds
#
# Revision: 0
# Processed by: cddbd v1.5.2PL0 Copyright (c) Steve Scherf et al.
# Submitted via: ExactAudioCopy v0.95b4
#
DISCID=7d102c1a
DTITLE=Various Artist - Shout It Out, Early R&B, 1946-1952, Volume 3
DYEAR=1900
DGENRE=R&B
TTITLE0=Jackson Brothers, We're Gonna Rock This Joint
TTITLE1=Jackson Brothers, There's No Other Way
TTITLE2=Jackson Brothers, Flat Foot Boogie
TTITLE3=Jackson Brothers, I'm The Biggest Fool
TTITLE4=Jackson Brothers, The Wrong Door
TTITLE5=Jackson Brothers, Love Was Here With You
TTITLE6=Conrad Johnson, Howling On Dowling
TTITLE7=Conrad Johnson, Fisherman Blues
TTITLE8=Conrad Johnson, Shout It Out
TTITLE9=Conrad Johnson, Ugly Mae
TTITLE10=Billie Langford, Mean And Evil Woman
TTITLE11=Billie Langford, Let Me Grease Your Griddle
TTITLE12=Bill Gaither, Introducing Mr. Gaither
TTITLE13=Bill Gaither, Lonesome Baby Blues
TTITLE14=Ernest Lane, What's Wrong Baby
TTITLE15=Ernest Lane, Little Girl, Little Girl
TTITLE16=Smiling Smokey Lynn, Unfaithful Woman
TTITLE17=Smiling Smokey Lynn, Goin' Back Home
TTITLE18=Smiling Smokey Lynn, Leave My Girl Alone
TTITLE19=Smiling Smokey Lynn, Straighten Up Pretty Baby
TTITLE20=Wes Prince, Ain't Gonna Move Blues
TTITLE21=Wes Prince, Doghouse Blues
TTITLE22=Wes Prince, Pop Fly Blues
TTITLE23=Wes Prince, Sizzling Papa Blues
TTITLE24=Emma Dell Lee, How much I Love You
TTITLE25=Emma  Dell Lee, No Good Daddy 
EXTD=
EXTT0=
EXTT1=
EXTT2=
EXTT3=
EXTT4=
EXTT5=
EXTT6=
EXTT7=
EXTT8=
EXTT9=
EXTT10=
EXTT11=
EXTT12=
EXTT13=
EXTT14=
EXTT15=
EXTT16=
EXTT17=
EXTT18=
EXTT19=
EXTT20=
EXTT21=
EXTT22=
EXTT23=
EXTT24=
EXTT25=
PLAYORDER=
